<mxfile host="app.diagrams.net" modified="2023-11-28T03:07:10.202Z" agent="Mozilla/5.0 (Windows NT 10.0; Win64; x64) AppleWebKit/537.36 (KHTML, like Gecko) Chrome/119.0.0.0 Safari/537.36" version="22.1.4" etag="VIjVH29knzAfD49qrRFY" type="github">
  <diagram name="第 1 页" id="2lY7xra0NZRzxeXwZyqq">
    <mxGraphModel>
      <root>
        <mxCell id="0" />
        <mxCell id="1" parent="0" />
      </root>
    </mxGraphModel>
  </diagram>
</mxfile>
